<svg xmlns="http://www.w3.org/2000/svg" xmlns:xlink="http://www.w3.org/1999/xlink" width="168" zoomAndPan="magnify" viewBox="0 0 126 32.249999" height="43" preserveAspectRatio="xMidYMid meet" version="1.2"><defs><clipPath id="53187b95d4"><path d="M 1.433594 10 L 13 10 L 13 16 L 1.433594 16 Z M 1.433594 10 "/></clipPath><clipPath id="b34020dff0"><path d="M 1.433594 16 L 13 16 L 13 22 L 1.433594 22 Z M 1.433594 16 "/></clipPath></defs><g id="38334b9998"><path style=" stroke:none;fill-rule:nonzero;fill:#5044e5;fill-opacity:1;" d="M 8.082031 5.863281 L 13.351562 10.394531 C 13.664062 10.664062 13.84375 11.058594 13.84375 11.472656 L 13.84375 14.886719 L 8.574219 10.355469 C 8.261719 10.085938 8.082031 9.691406 8.082031 9.277344 Z M 8.082031 5.863281 "/><path style=" stroke:none;fill-rule:nonzero;fill:#5044e5;fill-opacity:1;" d="M 8.082031 26.386719 L 13.351562 21.855469 C 13.664062 21.585938 13.84375 21.191406 13.84375 20.777344 L 13.84375 17.363281 L 8.574219 21.894531 C 8.261719 22.160156 8.082031 22.558594 8.082031 22.972656 Z M 8.082031 26.386719 "/><g clip-rule="nonzero" clip-path="url(#53187b95d4)"><path style=" stroke:none;fill-rule:nonzero;fill:#5044e5;fill-opacity:1;" d="M 1.789062 10.640625 L 6.988281 15.082031 C 7.242188 15.296875 7.5625 15.417969 7.890625 15.417969 L 12.082031 15.417969 L 6.898438 10.972656 C 6.644531 10.757812 6.324219 10.640625 5.996094 10.640625 Z M 1.789062 10.640625 "/></g><g clip-rule="nonzero" clip-path="url(#b34020dff0)"><path style=" stroke:none;fill-rule:nonzero;fill:#5044e5;fill-opacity:1;" d="M 1.789062 21.609375 L 6.957031 17.167969 C 7.210938 16.953125 7.53125 16.832031 7.863281 16.832031 L 12.097656 16.832031 L 6.898438 21.277344 C 6.644531 21.492188 6.324219 21.609375 5.996094 21.609375 Z M 1.789062 21.609375 "/></g><path style=" stroke:none;fill-rule:nonzero;fill:#5044e5;fill-opacity:1;" d="M 21.007812 5.863281 L 15.734375 10.394531 C 15.421875 10.664062 15.242188 11.058594 15.242188 11.472656 L 15.242188 14.886719 L 20.511719 10.355469 C 20.828125 10.085938 21.007812 9.691406 21.007812 9.277344 Z M 21.007812 5.863281 "/><path style=" stroke:none;fill-rule:nonzero;fill:#5044e5;fill-opacity:1;" d="M 21.007812 26.386719 L 15.734375 21.855469 C 15.421875 21.585938 15.242188 21.191406 15.242188 20.777344 L 15.242188 17.363281 L 20.511719 21.894531 C 20.828125 22.160156 21.007812 22.558594 21.007812 22.972656 Z M 21.007812 26.386719 "/><path style=" stroke:none;fill-rule:nonzero;fill:#5044e5;fill-opacity:1;" d="M 27.296875 10.640625 L 22.097656 15.082031 C 21.84375 15.296875 21.523438 15.417969 21.195312 15.417969 L 17 15.417969 L 22.1875 10.972656 C 22.441406 10.757812 22.761719 10.640625 23.089844 10.640625 Z M 27.296875 10.640625 "/><path style=" stroke:none;fill-rule:nonzero;fill:#5044e5;fill-opacity:1;" d="M 27.292969 21.609375 L 22.125 17.167969 C 21.875 16.953125 21.554688 16.832031 21.222656 16.832031 L 16.988281 16.832031 L 22.1875 21.277344 C 22.4375 21.492188 22.757812 21.609375 23.085938 21.609375 Z M 27.292969 21.609375 "/><g style="fill:#5044e5;fill-opacity:1;"><g transform="translate(33.110478, 22.240232)"><path style="stroke:none" d="M 10.59375 0 L 9.40625 -3.109375 L 4.109375 -3.109375 L 2.984375 0 L 0.03125 0 L 5.375 -13.703125 L 8.109375 -13.703125 L 13.609375 0 Z M 6.078125 -8.515625 L 4.953125 -5.421875 L 8.515625 -5.421875 L 7.359375 -8.515625 C 7.210938 -8.910156 7.082031 -9.316406 6.96875 -9.734375 C 6.851562 -10.148438 6.773438 -10.488281 6.734375 -10.75 L 6.65625 -10.75 C 6.550781 -10.007812 6.359375 -9.265625 6.078125 -8.515625 Z M 6.078125 -8.515625 "/></g></g><g style="fill:#5044e5;fill-opacity:1;"><g transform="translate(46.752332, 22.240232)"><path style="stroke:none" d="M 1.4375 0 L 1.4375 -13.703125 L 4.203125 -13.703125 L 4.203125 0 Z M 1.4375 0 "/></g></g><g style="fill:#5044e5;fill-opacity:1;"><g transform="translate(52.38661, 22.240232)"><path style="stroke:none" d="M 5.25 -3.1875 L 5.28125 -3.171875 C 5.488281 -3.859375 5.671875 -4.421875 5.828125 -4.859375 L 7.609375 -9.921875 L 10.3125 -9.921875 L 6.46875 0 L 4.09375 0 L 0.1875 -9.921875 L 2.9375 -9.921875 L 4.734375 -4.84375 C 4.921875 -4.289062 5.09375 -3.738281 5.25 -3.1875 Z M 5.25 -3.1875 "/></g></g><g style="fill:#5044e5;fill-opacity:1;"><g transform="translate(62.88897, 22.240232)"><path style="stroke:none" d="M 0.65625 -5.015625 C 0.65625 -5.992188 0.851562 -6.867188 1.25 -7.640625 C 1.644531 -8.421875 2.21875 -9.03125 2.96875 -9.46875 C 3.726562 -9.914062 4.617188 -10.140625 5.640625 -10.140625 C 6.679688 -10.140625 7.582031 -9.914062 8.34375 -9.46875 C 9.101562 -9.019531 9.679688 -8.410156 10.078125 -7.640625 C 10.472656 -6.867188 10.671875 -5.988281 10.671875 -5 C 10.671875 -3.976562 10.472656 -3.070312 10.078125 -2.28125 C 9.679688 -1.5 9.101562 -0.882812 8.34375 -0.4375 C 7.59375 0.0078125 6.695312 0.234375 5.65625 0.234375 C 4.625 0.234375 3.726562 0.0078125 2.96875 -0.4375 C 2.21875 -0.882812 1.644531 -1.503906 1.25 -2.296875 C 0.851562 -3.085938 0.65625 -3.992188 0.65625 -5.015625 Z M 5.640625 -8 C 5.203125 -8 4.804688 -7.875 4.453125 -7.625 C 4.109375 -7.382812 3.835938 -7.035156 3.640625 -6.578125 C 3.441406 -6.117188 3.34375 -5.578125 3.34375 -4.953125 C 3.34375 -4.335938 3.4375 -3.800781 3.625 -3.34375 C 3.8125 -2.882812 4.078125 -2.53125 4.421875 -2.28125 C 4.765625 -2.039062 5.171875 -1.921875 5.640625 -1.921875 C 6.109375 -1.921875 6.519531 -2.039062 6.875 -2.28125 C 7.226562 -2.519531 7.5 -2.867188 7.6875 -3.328125 C 7.882812 -3.796875 7.984375 -4.34375 7.984375 -4.96875 C 7.984375 -5.570312 7.890625 -6.101562 7.703125 -6.5625 C 7.515625 -7.019531 7.242188 -7.375 6.890625 -7.625 C 6.535156 -7.875 6.117188 -8 5.640625 -8 Z M 5.640625 -8 "/></g></g><g style="fill:#5044e5;fill-opacity:1;"><g transform="translate(74.213578, 22.240232)"><path style="stroke:none" d="M 5.96875 -7.765625 C 5.300781 -7.765625 4.789062 -7.492188 4.4375 -6.953125 C 4.09375 -6.421875 3.921875 -5.664062 3.921875 -4.6875 L 3.921875 0 L 1.296875 0 L 1.296875 -9.921875 L 3.734375 -9.921875 L 3.734375 -8.515625 L 3.765625 -8.515625 C 4.117188 -9.097656 4.488281 -9.515625 4.875 -9.765625 C 5.269531 -10.015625 5.742188 -10.140625 6.296875 -10.140625 C 6.628906 -10.140625 6.9375 -10.097656 7.21875 -10.015625 C 7.5 -9.941406 7.769531 -9.835938 8.03125 -9.703125 L 7.203125 -7.359375 C 7.054688 -7.453125 6.859375 -7.539062 6.609375 -7.625 C 6.367188 -7.71875 6.15625 -7.765625 5.96875 -7.765625 Z M 5.96875 -7.765625 "/></g></g><g style="fill:#5044e5;fill-opacity:1;"><g transform="translate(82.211816, 22.240232)"><path style="stroke:none" d="M 5.3125 -2.875 L 5.359375 -2.875 C 5.546875 -3.550781 5.675781 -3.992188 5.75 -4.203125 L 7.65625 -9.921875 L 10.375 -9.921875 L 6.5625 0.296875 C 5.976562 1.835938 5.414062 2.84375 4.875 3.3125 C 4.3125 3.78125 3.53125 4.015625 2.53125 4.015625 C 2.070312 4.015625 1.472656 3.929688 0.734375 3.765625 L 1.171875 1.75 C 1.554688 1.875 1.863281 1.9375 2.09375 1.9375 C 2.40625 1.9375 2.660156 1.882812 2.859375 1.78125 C 3.066406 1.6875 3.253906 1.503906 3.421875 1.234375 C 3.597656 0.960938 3.78125 0.554688 3.96875 0.015625 L 0.171875 -9.921875 L 2.96875 -9.921875 L 4.890625 -4.265625 C 5.015625 -3.929688 5.15625 -3.46875 5.3125 -2.875 Z M 5.3125 -2.875 "/></g></g><g style="fill:#5044e5;fill-opacity:1;"><g transform="translate(92.854337, 22.240232)"><path style="stroke:none" d="M 1.3125 0 L 1.3125 -2.6875 L 4 -2.6875 L 4 0 Z M 1.3125 0 "/></g></g><g style="fill:#5044e5;fill-opacity:1;"><g transform="translate(98.161579, 22.240232)"><path style="stroke:none" d="M 9.890625 0 L 7.3125 0 C 7.175781 -0.289062 7.066406 -0.65625 6.984375 -1.09375 C 6.109375 -0.207031 5.082031 0.234375 3.90625 0.234375 C 3.257812 0.234375 2.6875 0.109375 2.1875 -0.140625 C 1.695312 -0.390625 1.316406 -0.738281 1.046875 -1.1875 C 0.785156 -1.644531 0.65625 -2.160156 0.65625 -2.734375 C 0.65625 -3.617188 0.941406 -4.316406 1.515625 -4.828125 C 2.085938 -5.347656 2.972656 -5.703125 4.171875 -5.890625 C 5.367188 -6.078125 6.207031 -6.257812 6.6875 -6.4375 L 6.6875 -6.609375 C 6.6875 -7.191406 6.546875 -7.585938 6.265625 -7.796875 C 5.984375 -8.015625 5.566406 -8.125 5.015625 -8.125 C 4.578125 -8.125 4.210938 -8.023438 3.921875 -7.828125 C 3.628906 -7.628906 3.40625 -7.316406 3.25 -6.890625 L 0.859375 -7.25 C 1.117188 -8.25 1.601562 -8.976562 2.3125 -9.4375 C 3.03125 -9.90625 3.984375 -10.140625 5.171875 -10.140625 C 6.128906 -10.140625 6.910156 -10.015625 7.515625 -9.765625 C 8.128906 -9.523438 8.582031 -9.132812 8.875 -8.59375 C 9.164062 -8.0625 9.3125 -7.363281 9.3125 -6.5 L 9.3125 -2.453125 C 9.3125 -1.972656 9.347656 -1.570312 9.421875 -1.25 C 9.492188 -0.9375 9.648438 -0.519531 9.890625 0 Z M 4.6875 -4.25 C 3.75 -4.0625 3.28125 -3.609375 3.28125 -2.890625 C 3.28125 -2.484375 3.394531 -2.171875 3.625 -1.953125 C 3.851562 -1.734375 4.179688 -1.625 4.609375 -1.625 C 5.046875 -1.625 5.441406 -1.734375 5.796875 -1.953125 C 6.046875 -2.097656 6.234375 -2.253906 6.359375 -2.421875 C 6.484375 -2.585938 6.566406 -2.8125 6.609375 -3.09375 C 6.660156 -3.375 6.6875 -3.765625 6.6875 -4.265625 L 6.6875 -4.75 C 6.226562 -4.582031 5.5625 -4.414062 4.6875 -4.25 Z M 4.6875 -4.25 "/></g></g><g style="fill:#5044e5;fill-opacity:1;"><g transform="translate(108.682626, 22.240232)"><path style="stroke:none" d="M 1.296875 -11.265625 L 1.296875 -13.703125 L 3.921875 -13.703125 L 3.921875 -11.265625 Z M 1.296875 0 L 1.296875 -9.921875 L 3.921875 -9.921875 L 3.921875 0 Z M 1.296875 0 "/></g></g></g></svg>